<svg id="Calque_1" data-name="Calque 1" xmlns="http://www.w3.org/2000/svg" viewBox="0 0 52 52"><defs><style>.cls-1{fill:#6686c4;}</style></defs><title>like</title><path id="bc5fd902-9ec8-4b40-b095-3159fb5c2e67" class="cls-1" d="M420.27,271.89a26,26,0,1,0,26,26h0A26,26,0,0,0,420.27,271.89Zm3.48,9.36h0a2.25,2.25,0,0,1,2,1.44,7.46,7.46,0,0,1,.09,5.72,16.68,16.68,0,0,1-1.24,2.88s-.34.48.72.46H432a2.08,2.08,0,0,1,1.93,2.2c0,.06,0,.11,0,.16a2.15,2.15,0,0,1-1.41,2.09.11.11,0,0,0-.07.13h0a.06.06,0,0,0,0,.06,2.49,2.49,0,0,1,1.39,2,1.83,1.83,0,0,1-1.6,2,.12.12,0,0,0-.08.14.09.09,0,0,0,.06.06,2,2,0,0,1,1,1.92,1.77,1.77,0,0,1-1.33,1.69.1.1,0,0,0-.08.13h0l.05.06a1.73,1.73,0,0,1,.69,1.56,1.67,1.67,0,0,1-.38,1.09,1.68,1.68,0,0,1-1.34.61H416.57s-.78,0-.78-1v-9.39a12.42,12.42,0,0,1,1.87-6.55,32.81,32.81,0,0,1,3.36-4.08c.2-.23,1-.88,1-1.23s.05-1.2.07-2.57a1.58,1.58,0,0,1,1.6-1.58h.06ZM407.38,295h5.72a.82.82,0,0,1,.82.81v13.12a.82.82,0,0,1-.82.82h-5.72a.82.82,0,0,1-.82-.82h0V295.82A.82.82,0,0,1,407.38,295Z" transform="translate(-394.27 -271.89)"/></svg>